ibm2402
version=1
nRows=53
nColumns=19
inDegrees=yes
endheader
time	ground_force1_vx	ground_force1_vy	ground_force1_vz	ground_force1_px	ground_force1_py	ground_force1_pz	ground_torque1_x	ground_torque1_y	ground_torque1_z	ground_force2_vx	ground_force2_vy	ground_force2_vz	ground_force2_px	ground_force2_py	ground_force2_pz	ground_torque2_x	ground_torque2_y	ground_torque2_z
0.000000	24.859009	274.114990	-2.967222	0.168300	0.000000	-0.046416	0.000002	2.694824	0.000005	-43.446041	403.612671	4.434513	-0.155503	0.000000	-0.056871	0.000003	-1.922154	-0.000008	
0.001000	24.248657	271.063232	-2.662046	0.169857	0.000000	-0.043347	-0.000001	2.491565	0.000001	-44.666744	404.833374	3.518986	-0.155788	0.000000	-0.053684	0.000006	-2.334804	-0.000002	
0.002000	24.859009	274.114990	-2.967222	0.167855	0.000000	-0.043744	-0.000001	2.393714	0.000002	-44.361568	404.223022	4.739689	-0.155193	0.000000	-0.053463	-0.000001	-2.112604	0.000000	
0.003000	23.943481	271.673584	-4.798276	0.167566	0.000000	-0.046393	0.000001	2.402565	0.000002	-43.751217	403.002319	4.739689	-0.156723	0.000000	-0.053019	-0.000001	-2.126884	-0.000001	
0.004000	24.553833	275.335693	0.389712	0.168662	0.000000	-0.047758	0.000002	2.279088	0.000005	-43.446041	405.443726	4.129337	-0.155779	0.000000	-0.056162	-0.000001	-2.045025	-0.000000	
0.005000	23.027954	271.673584	-2.356870	0.166667	0.000000	-0.043023	0.000002	2.203896	0.000004	-44.666744	404.223022	3.824161	-0.155797	0.000000	-0.054369	0.000003	-2.210854	0.000001	
0.006000	23.943481	277.166748	-2.356870	0.167658	0.000000	-0.046775	-0.000002	2.167646	0.000002	-43.751217	404.223022	4.739689	-0.156099	0.000000	-0.052557	-0.000000	-2.607824	0.000001	
0.007000	23.333130	274.114990	-3.882749	0.169636	0.000000	-0.045748	-0.000000	2.316422	0.000001	-43.751217	403.002319	5.655216	-0.157026	0.000000	-0.054382	0.000002	-2.059380	-0.000005	
0.008000	24.248657	269.232178	-1.441343	0.168632	0.000000	-0.044329	0.000001	2.441754	0.000001	-43.140865	407.885132	3.824161	-0.155745	0.000000	-0.056125	-0.000000	-1.913063	-0.000003	
0.009000	24.248657	266.180420	-0.830991	0.167929	0.000000	-0.041180	-0.000002	2.414606	-0.000001	-44.056393	405.443726	4.739689	-0.155478	0.000000	-0.053904	-0.000002	-2.138647	-0.000000	
0.010000	24.248657	269.842529	-2.662046	0.169495	0.000000	-0.042643	-0.000002	2.233016	0.000002	-42.835690	404.223022	5.350040	-0.155193	0.000000	-0.053463	-0.000001	-2.252047	0.000000	
0.011000	24.248657	271.673584	-3.272398	0.166218	0.000000	-0.043697	0.000000	2.574849	0.000004	-43.751217	403.002319	4.434513	-0.156117	0.000000	-0.055745	-0.000002	-2.195457	-0.000001	
0.012000	25.164185	270.452881	-2.051694	0.169451	0.000000	-0.042996	0.000003	2.721507	-0.000001	-43.446041	406.054077	4.739689	-0.155771	0.000000	-0.052320	0.000006	-2.574679	-0.000000	
0.013000	22.722778	270.452881	-2.967222	0.168999	0.000000	-0.042996	0.000003	2.448659	0.000003	-44.971920	405.443726	3.518986	-0.155779	0.000000	-0.052549	0.000002	-2.613617	-0.000000	
0.014000	24.553833	268.621826	-4.493101	0.169129	0.000000	-0.042614	-0.000000	2.590152	0.000002	-43.751217	405.443726	5.655216	-0.156381	0.000000	-0.055259	0.000001	-2.207767	-0.000000	
0.015000	23.333130	268.011475	-5.408628	0.168261	0.000000	-0.040892	0.000001	2.452265	-0.000000	-43.140865	404.833374	4.129337	-0.156089	0.000000	-0.055493	0.000004	-2.211821	-0.000005	
0.016000	22.722778	269.842529	-1.746518	0.170399	0.000000	-0.043322	0.000002	2.054300	0.000002	-42.225338	406.054077	6.570744	-0.156071	0.000000	-0.055025	-0.000003	-2.176066	-0.000002	
0.017000	24.248657	266.180420	-4.798276	0.167470	0.000000	-0.040492	-0.000000	2.408661	0.000004	-44.056393	404.833374	4.129337	-0.156693	0.000000	-0.054136	0.000000	-2.401411	0.000001	
0.018000	24.553833	266.790771	-5.103452	0.169260	0.000000	-0.043600	0.000002	2.578295	0.000005	-42.530514	405.443726	4.739689	-0.156080	0.000000	-0.055259	0.000001	-2.129903	-0.000006	
0.019000	23.638306	276.556396	-4.187925	0.165490	0.000000	-0.047763	0.000001	2.212637	0.000002	-42.530514	406.054077	4.739689	-0.157274	0.000000	-0.055476	-0.000001	-2.114994	-0.000004	
0.020000	21.196899	260.687256	-3.882749	0.169243	0.000000	-0.036450	0.000004	2.093062	-0.000001	-42.225338	404.833374	3.824161	-0.156391	0.000000	-0.051422	-0.000000	-2.435218	-0.000002	
0.021000	23.027954	266.790771	-0.830991	0.171090	0.000000	-0.039482	-0.000000	1.897471	0.000001	-43.140865	404.223022	6.265568	-0.156703	0.000000	-0.052557	-0.000000	-2.321636	0.000002	
0.022000	23.943481	268.621826	-2.356870	0.169583	0.000000	-0.042614	-0.000000	2.271803	0.000001	-41.920162	405.443726	4.129337	-0.156080	0.000000	-0.055259	0.000001	-2.045271	-0.000006	
0.023000	25.469360	266.180420	-1.441343	0.164718	0.000000	-0.040492	-0.000000	2.631093	0.000002	-43.140865	404.833374	3.824161	-0.157296	0.000000	-0.054136	0.000000	-2.267605	-0.000005	
0.024000	25.164185	268.621826	-3.577573	0.168220	0.000000	-0.042614	-0.000000	2.664838	0.000002	-44.056393	407.885132	3.824161	-0.156044	0.000000	-0.055227	-0.000000	-2.449406	-0.000002	
0.025000	23.333130	272.894287	-1.746518	0.167487	0.000000	-0.045734	0.000000	1.996403	0.000002	-43.446041	406.054077	3.213810	-0.154568	0.000000	-0.053222	-0.000003	-2.456614	-0.000004	
0.026000	25.164185	268.011475	-4.798276	0.166895	0.000000	-0.041575	0.000001	2.615323	0.000002	-42.225338	404.833374	3.518986	-0.156089	0.000000	-0.052779	-0.000003	-2.289381	-0.000005	
0.027000	23.943481	271.063232	-3.577573	0.168506	0.000000	-0.044698	-0.000003	2.241957	0.000002	-43.140865	404.223022	2.603458	-0.154891	0.000000	-0.055728	0.000005	-2.397210	0.000000	
0.028000	24.248657	269.232178	-6.018980	0.168632	0.000000	-0.042969	0.000002	2.743133	0.000001	-41.614986	403.002319	1.687931	-0.157329	0.000000	-0.054836	0.000004	-1.848313	-0.000002	
0.029000	25.469360	274.725342	-3.577573	0.168704	0.000000	-0.046089	0.000002	2.625803	0.000003	-42.225338	404.833374	3.518986	-0.156693	0.000000	-0.052327	0.000003	-2.123252	0.000001	
0.030000	24.859009	270.452881	-2.356870	0.168097	0.000000	-0.043673	0.000002	2.751365	0.000003	-41.920162	403.612671	2.603458	-0.156410	0.000000	-0.052788	-0.000002	-2.157288	-0.000007	
0.031000	23.943481	271.673584	-3.272398	0.168465	0.000000	-0.043697	0.000000	2.351701	0.000003	-42.835690	405.443726	1.993107	-0.156381	0.000000	-0.052549	0.000002	-2.489352	-0.000000	
0.032000	23.638306	264.349365	-2.967222	0.166667	0.000000	-0.041472	0.000002	2.529037	0.000003	-42.530514	406.054077	1.993107	-0.156071	0.000000	-0.051418	0.000002	-2.401529	-0.000002	
0.033000	24.248657	262.518311	-3.882749	0.169109	0.000000	-0.036886	-0.000002	2.669580	-0.000000	-42.835690	404.223022	2.603458	-0.154287	0.000000	-0.056181	0.000001	-2.243798	-0.000006	
0.034000	24.248657	268.621826	-4.798276	0.167311	0.000000	-0.043296	-0.000003	2.523014	0.000001	-41.614986	404.833374	1.687931	-0.157597	0.000000	-0.053684	0.000006	-2.170485	-0.000002	
0.035000	23.638306	269.842529	-3.272398	0.169042	0.000000	-0.044000	0.000000	2.390580	0.000003	-43.140865	406.054077	2.908634	-0.157274	0.000000	-0.050516	0.000004	-2.430515	-0.000004	
0.036000	23.943481	270.452881	-5.408628	0.168097	0.000000	-0.043673	0.000002	2.481281	0.000003	-42.530514	403.612671	1.382755	-0.156713	0.000000	-0.052334	0.000001	-2.365393	-0.000003	
0.037000	25.164185	271.673584	-2.051694	0.169363	0.000000	-0.043697	0.000000	2.429031	0.000004	-42.530514	404.223022	2.298282	-0.157005	0.000000	-0.052104	0.000003	-2.276806	0.000002	
0.038000	23.943481	270.452881	-4.187925	0.166291	0.000000	-0.040965	0.000003	2.791129	0.000002	-43.140865	404.223022	2.298282	-0.156099	0.000000	-0.055275	0.000002	-2.049258	0.000001	
0.039000	23.638306	271.063232	-5.408628	0.169407	0.000000	-0.043347	-0.000001	2.448666	0.000004	-42.225338	404.223022	3.518986	-0.156703	0.000000	-0.054822	0.000005	-2.109420	0.000002	
0.040000	23.333130	271.063232	-3.272398	0.167606	0.000000	-0.045374	0.000000	2.398080	0.000000	-43.751217	403.002319	1.077579	-0.157026	0.000000	-0.052110	-0.000001	-2.465593	-0.000005	
0.041000	23.333130	269.232178	-0.220640	0.168179	0.000000	-0.043649	0.000001	2.567831	0.000002	-42.225338	404.833374	1.382755	-0.156089	0.000000	-0.052779	-0.000003	-2.210837	-0.000005	
0.042000	23.638306	269.842529	-3.272398	0.169495	0.000000	-0.044000	0.000000	2.392060	0.000002	-41.920162	405.443726	1.687931	-0.157285	0.000000	-0.053904	-0.000002	-2.206432	-0.000005	
0.043000	23.943481	269.232178	-4.187925	0.166818	0.000000	-0.043649	0.000001	2.545968	0.000001	-43.140865	403.612671	2.908634	-0.156713	0.000000	-0.055056	-0.000004	-2.419402	-0.000003	
0.044000	24.248657	267.401123	-2.967222	0.168303	0.000000	-0.041900	-0.000001	2.619653	0.000003	-42.225338	402.391968	2.298282	-0.157340	0.000000	-0.054616	-0.000001	-2.124819	-0.000002	
0.045000	23.638306	267.401123	-6.324155	0.169216	0.000000	-0.042585	0.000001	2.483244	0.000005	-41.920162	403.002319	2.298282	-0.155208	0.000000	-0.052565	0.000001	-2.079800	-0.000002	
0.046000	23.333130	268.011475	-4.187925	0.168261	0.000000	-0.041575	0.000001	2.597138	-0.000000	-41.920162	404.833374	-0.143124	-0.157296	0.000000	-0.050518	-0.000002	-2.361728	-0.000005	
0.047000	23.638306	270.452881	-4.187925	0.167194	0.000000	-0.042996	0.000003	2.240906	0.000003	-41.614986	400.560913	1.687931	-0.157069	0.000000	-0.052123	-0.000000	-2.144770	-0.000000	
0.048000	25.164185	269.232178	-3.272398	0.166818	0.000000	-0.043649	0.000001	2.628655	0.000001	-42.530514	403.612671	0.162052	-0.156713	0.000000	-0.054602	-0.000001	-2.277114	-0.000003	
0.049000	24.248657	267.401123	-4.187925	0.169673	0.000000	-0.041216	0.000000	2.572782	0.000003	-41.920162	402.391968	1.077579	-0.157947	0.000000	-0.048246	0.000002	-2.447366	-0.000005	
0.050000	23.943481	269.232178	-1.746518	0.167272	0.000000	-0.045009	0.000004	2.381578	-0.000000	-42.225338	403.002319	-0.448300	-0.157632	0.000000	-0.051656	0.000001	-2.361661	-0.000006	
0.051000	23.943481	271.673584	-3.272398	0.168465	0.000000	-0.044371	0.000001	2.518668	0.000003	-41.920162	403.002319	0.162052	-0.156723	0.000000	-0.052110	-0.000001	-2.292833	-0.000001	
0.052000	25.164185	267.401123	-5.103452	0.165564	0.000000	-0.040531	-0.000002	2.731513	0.000002	-42.835690	401.781616	0.772404	-0.157047	0.000000	-0.048015	0.000002	-2.507743	-0.000002	
